<?xml version="1.0" encoding="UTF-8"?>
<svg xmlns="http://www.w3.org/2000/svg" xmlns:xlink="http://www.w3.org/1999/xlink" width="22px" height="22px" viewBox="0 0 22 22" version="1.1">
<g id="surface1">
<path style=" stroke:none;fill-rule:nonzero;fill:rgb(18.823529%,30.980392%,99.607843%);fill-opacity:1;" d="M 19.097656 6.179688 C 18.914062 6.296875 18.652344 6.40625 18.542969 6.53125 C 18.503906 6.574219 18.480469 6.617188 18.488281 6.664062 L 18.488281 7.136719 L 18.214844 8.058594 L 18.0625 8.5625 L 17.75 9.59375 L 17.449219 10.609375 L 17.21875 11.375 C 17.21875 11.496094 17.214844 11.613281 17.207031 11.730469 C 17.171875 12.167969 17.082031 12.589844 16.933594 12.984375 C 16.847656 13.226562 16.742188 13.460938 16.613281 13.679688 C 16.570312 13.769531 16.515625 13.855469 16.457031 13.9375 C 16.277344 14.226562 16.054688 14.492188 15.8125 14.726562 C 15.625 14.914062 15.417969 15.089844 15.195312 15.234375 C 15.195312 15.234375 15.195312 15.234375 15.1875 15.234375 C 15.152344 15.265625 15.109375 15.292969 15.066406 15.316406 C 14.921875 15.414062 14.773438 15.496094 14.617188 15.570312 C 14.511719 15.625 14.40625 15.671875 14.296875 15.710938 C 14.273438 15.726562 14.246094 15.734375 14.222656 15.742188 C 13.960938 15.867188 13.660156 15.949219 13.355469 15.992188 C 13.335938 15.996094 13.324219 15.996094 13.304688 16 C 13.121094 16.03125 12.941406 16.058594 12.761719 16.074219 C 12.675781 16.082031 12.589844 16.085938 12.507812 16.085938 L 12.183594 16.070312 L 10.613281 15.988281 C 10.613281 15.980469 10.609375 15.988281 10.609375 15.988281 L 9.820312 15.945312 C 9.761719 15.945312 9.699219 15.945312 9.640625 15.941406 C 9.390625 15.933594 9.152344 15.902344 8.914062 15.855469 C 8.910156 15.855469 8.910156 15.855469 8.910156 15.855469 C 8.472656 15.769531 8.058594 15.625 7.667969 15.425781 C 7.453125 15.316406 7.242188 15.195312 7.042969 15.050781 C 6.960938 14.992188 6.882812 14.929688 6.804688 14.859375 C 6.585938 14.675781 6.390625 14.480469 6.207031 14.277344 C 6.179688 14.25 6.15625 14.222656 6.132812 14.195312 C 6.105469 14.167969 6.078125 14.136719 6.054688 14.109375 C 5.878906 13.886719 5.734375 13.664062 5.613281 13.425781 C 5.503906 13.214844 5.417969 12.988281 5.347656 12.742188 C 5.320312 12.65625 5.296875 12.570312 5.28125 12.480469 C 5.277344 12.476562 5.269531 12.464844 5.269531 12.457031 C 5.226562 12.269531 5.183594 12.074219 5.160156 11.875 C 5.132812 11.722656 5.121094 11.574219 5.121094 11.417969 C 5.109375 11.359375 5.109375 11.292969 5.109375 11.234375 L 5.984375 9.882812 L 6.84375 8.5625 L 7.234375 7.960938 L 7.585938 7.421875 L 7.703125 7.234375 L 7.703125 6.761719 C 7.714844 6.65625 7.71875 6.546875 7.714844 6.445312 C 7.710938 6.125 7.644531 5.8125 7.539062 5.515625 C 7.4375 5.199219 7.296875 4.898438 7.148438 4.625 C 6.976562 4.308594 6.792969 4.023438 6.640625 3.765625 C 6.417969 3.390625 6.261719 3.085938 6.300781 2.871094 C 6.632812 2.792969 6.980469 2.75 7.332031 2.75 L 14.667969 2.75 C 16.582031 2.75 18.234375 3.941406 18.914062 5.621094 C 18.988281 5.796875 19.054688 5.984375 19.097656 6.179688 Z M 19.097656 6.179688 "/>
<path style=" stroke:none;fill-rule:nonzero;fill:rgb(28.627451%,15.686275%,95.686275%);fill-opacity:1;" d="M 19.25 7.332031 L 19.25 7.457031 L 18.617188 7.824219 L 18.214844 8.058594 L 17.769531 8.3125 L 16.878906 8.832031 L 16.007812 9.335938 L 15.121094 9.847656 L 14.765625 10.054688 C 14.765625 10.277344 14.710938 10.476562 14.613281 10.660156 C 14.46875 10.925781 14.230469 11.148438 13.929688 11.335938 C 13.621094 11.523438 13.246094 11.671875 12.824219 11.785156 C 12.824219 11.785156 12.824219 11.777344 12.820312 11.785156 C 11.1875 12.207031 8.960938 12.011719 7.878906 11.207031 C 7.578125 10.980469 7.367188 10.707031 7.273438 10.390625 C 7.246094 10.285156 7.234375 10.171875 7.234375 10.054688 L 7.234375 6.761719 C 7.238281 6.691406 7.191406 6.621094 7.109375 6.554688 C 6.859375 6.355469 6.277344 6.167969 5.628906 5.980469 C 5.121094 5.839844 4.574219 5.695312 4.117188 5.558594 C 3.753906 5.449219 3.445312 5.339844 3.261719 5.234375 C 3.347656 5.074219 3.441406 4.914062 3.542969 4.761719 C 4.183594 3.824219 5.164062 3.128906 6.300781 2.871094 C 6.632812 2.792969 6.980469 2.75 7.332031 2.75 L 12.285156 2.75 C 14.746094 3.179688 17.011719 4.183594 18.914062 5.621094 C 18.988281 5.796875 19.054688 5.984375 19.097656 6.179688 C 19.179688 6.480469 19.230469 6.792969 19.246094 7.117188 C 19.25 7.1875 19.25 7.261719 19.25 7.332031 Z M 19.25 7.332031 "/>
<path style=" stroke:none;fill-rule:nonzero;fill:rgb(38.431373%,0%,91.764706%);fill-opacity:1;" d="M 19.25 7.332031 L 19.25 9.355469 L 19.148438 9.667969 L 18.804688 10.734375 L 18.449219 11.835938 L 18.261719 12.421875 L 18.085938 12.964844 L 17.917969 13.484375 L 17.75 13.996094 L 17.664062 14.269531 L 17.550781 14.625 C 17.550781 14.972656 17.539062 15.28125 17.515625 15.542969 C 17.511719 15.570312 17.507812 15.597656 17.507812 15.625 C 17.480469 15.867188 17.445312 16.074219 17.382812 16.246094 C 17.378906 16.277344 17.371094 16.304688 17.363281 16.324219 C 17.242188 16.65625 17.0625 16.867188 16.796875 17.003906 C 16.734375 17.039062 16.660156 17.066406 16.582031 17.097656 C 16.339844 17.179688 16.03125 17.21875 15.65625 17.242188 C 15.382812 17.261719 15.066406 17.265625 14.707031 17.265625 L 14.390625 17.265625 L 13.847656 17.242188 L 13.75 17.238281 L 12.753906 17.195312 L 11.746094 17.15625 L 8.425781 17.019531 L 7.5625 16.980469 L 7.441406 16.980469 C 7.085938 16.976562 6.777344 16.953125 6.511719 16.917969 C 6.128906 16.859375 5.828125 16.757812 5.605469 16.605469 C 5.285156 16.398438 5.097656 16.097656 4.988281 15.675781 C 4.960938 15.574219 4.9375 15.46875 4.921875 15.355469 C 4.875 15.089844 4.855469 14.78125 4.839844 14.4375 C 4.839844 14.367188 4.839844 14.300781 4.835938 14.226562 C 4.832031 14.222656 4.835938 14.222656 4.835938 14.222656 L 4.835938 13.957031 C 4.832031 13.824219 4.832031 13.6875 4.832031 13.542969 L 4.855469 12.804688 L 4.867188 12.277344 L 4.886719 11.664062 L 4.886719 11.578125 L 4.917969 10.449219 L 4.949219 9.324219 L 4.980469 8.265625 L 5.007812 7.222656 L 5.019531 6.949219 C 5.019531 6.804688 4.539062 6.722656 4 6.65625 C 3.574219 6.601562 3.109375 6.550781 2.828125 6.484375 C 2.851562 6.378906 2.875 6.273438 2.902344 6.171875 C 2.984375 5.84375 3.109375 5.53125 3.261719 5.234375 C 3.347656 5.074219 3.441406 4.914062 3.542969 4.761719 C 4.53125 4.328125 5.5625 3.988281 6.640625 3.765625 C 7.585938 3.570312 8.570312 3.464844 9.589844 3.464844 C 12.960938 3.464844 16.078125 4.605469 18.542969 6.53125 C 18.78125 6.714844 19.015625 6.910156 19.246094 7.117188 C 19.25 7.1875 19.25 7.261719 19.25 7.332031 Z M 19.25 7.332031 "/>
<path style=" stroke:none;fill-rule:nonzero;fill:rgb(40.392157%,22.745098%,71.764706%);fill-opacity:1;" d="M 19.25 8.417969 L 19.25 10.5 L 18.996094 10.984375 L 18.515625 11.925781 L 18.261719 12.421875 L 18.027344 12.875 L 17.925781 13.070312 C 17.925781 13.214844 17.925781 13.351562 17.917969 13.484375 C 17.917969 13.679688 17.90625 13.871094 17.894531 14.042969 C 17.875 14.25 17.847656 14.4375 17.820312 14.613281 C 17.75 14.972656 17.65625 15.285156 17.515625 15.542969 C 17.5 15.574219 17.480469 15.605469 17.460938 15.632812 C 17.410156 15.714844 17.351562 15.792969 17.289062 15.867188 C 17.207031 15.96875 17.113281 16.054688 17.007812 16.128906 C 16.851562 16.246094 16.667969 16.34375 16.457031 16.417969 C 16.199219 16.515625 15.894531 16.578125 15.539062 16.613281 C 15.304688 16.636719 15.046875 16.652344 14.765625 16.652344 L 14.574219 16.660156 L 13.621094 16.714844 L 13.617188 16.714844 L 12.605469 16.773438 L 11.574219 16.835938 L 10.152344 16.917969 L 8.425781 17.019531 L 8.171875 17.03125 C 7.9375 17.03125 7.71875 17.019531 7.507812 16.992188 C 7.484375 16.984375 7.464844 16.980469 7.441406 16.980469 C 7.132812 16.929688 6.847656 16.847656 6.589844 16.734375 C 6.277344 16.597656 6.007812 16.414062 5.78125 16.191406 C 5.578125 15.996094 5.402344 15.769531 5.261719 15.519531 C 5.230469 15.460938 5.199219 15.40625 5.171875 15.339844 C 5.03125 15.070312 4.921875 14.765625 4.839844 14.4375 C 4.828125 14.382812 4.8125 14.324219 4.804688 14.261719 C 4.777344 14.15625 4.753906 14.046875 4.738281 13.933594 C 4.6875 13.640625 4.660156 13.328125 4.648438 13.003906 L 4.648438 13 C 4.644531 12.867188 4.636719 12.738281 4.636719 12.597656 L 4.414062 12.0625 L 4.382812 11.980469 L 4.355469 11.910156 L 4.011719 11.089844 L 3.957031 10.957031 L 3.625 10.164062 L 3.257812 9.28125 C 3.257812 9.28125 3.257812 9.28125 3.253906 9.28125 L 2.882812 8.386719 L 2.75 8.0625 L 2.75 7.332031 C 2.75 7.042969 2.777344 6.761719 2.828125 6.484375 C 2.851562 6.378906 2.875 6.273438 2.902344 6.171875 C 3.289062 5.949219 3.699219 5.742188 4.117188 5.558594 C 5.070312 5.132812 6.089844 4.816406 7.148438 4.625 C 7.9375 4.484375 8.757812 4.40625 9.589844 4.40625 C 12.9375 4.40625 15.976562 5.621094 18.351562 7.597656 C 18.441406 7.671875 18.53125 7.746094 18.617188 7.824219 C 18.832031 8.011719 19.042969 8.207031 19.25 8.417969 Z M 19.25 8.417969 "/>
<path style=" stroke:none;fill-rule:nonzero;fill:rgb(55.686275%,14.117647%,66.666667%);fill-opacity:1;" d="M 19.25 9.785156 L 19.25 12.140625 L 18.988281 12.6875 L 18.492188 13.71875 L 18.488281 13.730469 C 18.488281 13.929688 18.480469 14.109375 18.464844 14.269531 C 18.421875 14.796875 18.292969 15.128906 18.082031 15.335938 C 17.929688 15.492188 17.742188 15.578125 17.507812 15.625 C 17.496094 15.628906 17.476562 15.628906 17.460938 15.632812 C 17.390625 15.648438 17.3125 15.65625 17.230469 15.65625 C 16.945312 15.683594 16.609375 15.664062 16.226562 15.636719 C 16.183594 15.636719 16.136719 15.632812 16.09375 15.628906 C 15.8125 15.609375 15.515625 15.59375 15.183594 15.578125 C 15.003906 15.574219 14.816406 15.570312 14.625 15.570312 L 14.617188 15.570312 L 14.152344 15.605469 L 14.148438 15.605469 L 13.109375 15.679688 L 11.921875 15.769531 L 11.746094 15.785156 L 10.359375 15.886719 L 9.640625 15.941406 L 8.929688 15.992188 C 8.804688 15.992188 8.683594 15.992188 8.566406 15.988281 C 8.566406 15.988281 8.5625 15.980469 8.5625 15.988281 C 8.042969 15.976562 7.582031 15.945312 7.167969 15.867188 C 6.789062 15.804688 6.453125 15.703125 6.167969 15.550781 C 5.875 15.410156 5.632812 15.207031 5.4375 14.949219 C 5.246094 14.699219 5.109375 14.382812 5.023438 14.003906 C 5.023438 13.996094 5.023438 13.996094 5.023438 13.996094 C 4.960938 13.691406 4.921875 13.332031 4.921875 12.929688 L 4.855469 12.804688 L 4.445312 12.078125 L 4.386719 11.976562 L 4.355469 11.910156 L 3.929688 11.15625 L 3.71875 10.777344 L 3.453125 10.304688 L 2.992188 9.484375 L 2.75 9.050781 L 2.75 7.367188 C 3.152344 7.097656 3.570312 6.867188 4 6.65625 C 4.523438 6.390625 5.066406 6.164062 5.628906 5.980469 C 6.242188 5.78125 6.882812 5.621094 7.539062 5.515625 C 8.203125 5.402344 8.886719 5.347656 9.589844 5.347656 C 12.703125 5.347656 15.566406 6.460938 17.769531 8.3125 C 17.871094 8.390625 17.964844 8.480469 18.0625 8.5625 C 18.449219 8.90625 18.816406 9.277344 19.148438 9.667969 C 19.1875 9.707031 19.222656 9.746094 19.25 9.785156 Z M 19.25 9.785156 "/>
<path style=" stroke:none;fill-rule:nonzero;fill:rgb(76.078431%,9.411765%,35.686275%);fill-opacity:1;" d="M 19.25 11.324219 L 19.25 14.640625 C 19.140625 14.574219 18.988281 14.496094 18.800781 14.414062 C 18.699219 14.363281 18.585938 14.3125 18.464844 14.269531 C 18.292969 14.191406 18.105469 14.117188 17.894531 14.042969 C 17.847656 14.023438 17.800781 14.011719 17.75 13.996094 C 17.667969 13.964844 17.582031 13.9375 17.496094 13.910156 C 17.222656 13.828125 16.925781 13.75 16.613281 13.679688 C 16.496094 13.660156 16.371094 13.636719 16.246094 13.617188 C 15.847656 13.546875 15.421875 13.507812 14.976562 13.503906 C 14.941406 13.496094 14.902344 13.496094 14.863281 13.496094 L 13.6875 13.507812 L 12.082031 13.515625 L 12.078125 13.515625 L 8.644531 13.542969 C 7.554688 13.542969 6.882812 13.804688 6.480469 13.910156 C 6.480469 13.910156 6.476562 13.910156 6.476562 13.914062 C 6.050781 14.023438 5.917969 13.957031 5.878906 13.210938 C 5.871094 13.003906 5.867188 12.738281 5.867188 12.410156 L 5.609375 12.214844 L 5.160156 11.875 L 4.886719 11.664062 L 4.832031 11.625 L 4.070312 11.046875 L 3.957031 10.957031 L 3.71875 10.777344 L 3.277344 10.445312 L 2.75 10.042969 L 2.75 8.484375 C 2.796875 8.445312 2.835938 8.414062 2.882812 8.386719 C 3.546875 7.929688 4.257812 7.539062 5.007812 7.222656 C 5.679688 6.9375 6.382812 6.714844 7.109375 6.554688 C 7.304688 6.511719 7.507812 6.472656 7.714844 6.445312 C 8.324219 6.339844 8.953125 6.289062 9.589844 6.289062 C 12.34375 6.289062 14.871094 7.246094 16.878906 8.832031 C 17.183594 9.070312 17.476562 9.324219 17.75 9.59375 C 18.128906 9.949219 18.480469 10.332031 18.804688 10.734375 C 18.871094 10.816406 18.933594 10.898438 18.996094 10.984375 C 19.085938 11.097656 19.167969 11.210938 19.25 11.324219 Z M 19.25 11.324219 "/>
<path style=" stroke:none;fill-rule:nonzero;fill:rgb(84.705882%,10.588235%,37.647059%);fill-opacity:1;" d="M 19.25 13.164062 L 19.25 14.667969 C 19.25 14.964844 19.222656 15.257812 19.167969 15.542969 C 19.085938 15.964844 18.941406 16.367188 18.75 16.742188 C 18.648438 16.765625 18.535156 16.765625 18.40625 16.746094 C 18.117188 16.695312 17.777344 16.546875 17.410156 16.347656 C 17.394531 16.34375 17.375 16.335938 17.363281 16.324219 C 17.246094 16.265625 17.128906 16.203125 17.007812 16.128906 C 16.765625 15.996094 16.507812 15.847656 16.253906 15.710938 C 16.199219 15.683594 16.140625 15.65625 16.09375 15.628906 C 15.796875 15.476562 15.496094 15.339844 15.195312 15.234375 C 15.195312 15.234375 15.195312 15.234375 15.1875 15.234375 C 15.125 15.210938 15.054688 15.1875 14.988281 15.171875 C 14.726562 15.097656 14.460938 15.050781 14.203125 15.050781 L 13.699219 14.90625 L 11.46875 14.257812 C 11.46875 14.257812 11.46875 14.257812 11.464844 14.257812 L 10.09375 13.859375 L 10.089844 13.859375 L 9.492188 13.6875 C 7.769531 13.6875 6.710938 14.417969 6.195312 14.140625 C 5.996094 14.035156 5.875 13.769531 5.835938 13.246094 C 5.820312 13.097656 5.816406 12.933594 5.816406 12.742188 L 5.28125 12.480469 L 5.257812 12.472656 L 5.253906 12.472656 L 4.867188 12.277344 L 4.445312 12.078125 L 4.335938 12.023438 L 3.4375 11.585938 L 2.75 11.253906 L 2.75 9.679688 C 2.828125 9.609375 2.910156 9.546875 2.992188 9.484375 C 3.078125 9.414062 3.167969 9.351562 3.253906 9.28125 C 3.257812 9.28125 3.257812 9.28125 3.257812 9.28125 C 3.800781 8.890625 4.371094 8.546875 4.980469 8.265625 C 5.691406 7.925781 6.449219 7.664062 7.234375 7.492188 C 7.347656 7.464844 7.464844 7.4375 7.585938 7.421875 C 8.234375 7.296875 8.90625 7.234375 9.589844 7.234375 C 12.003906 7.234375 14.222656 8.015625 16.007812 9.335938 C 16.527344 9.722656 17.007812 10.148438 17.449219 10.609375 C 17.8125 10.992188 18.144531 11.402344 18.449219 11.835938 C 18.472656 11.867188 18.492188 11.898438 18.515625 11.925781 C 18.6875 12.171875 18.84375 12.425781 18.988281 12.6875 C 19.085938 12.84375 19.167969 13.003906 19.25 13.164062 Z M 19.25 13.164062 "/>
<path style=" stroke:none;fill-rule:nonzero;fill:rgb(96.078431%,0%,34.117647%);fill-opacity:1;" d="M 19.167969 15.542969 C 19.085938 15.964844 18.941406 16.367188 18.75 16.742188 C 18.664062 16.914062 18.566406 17.074219 18.460938 17.230469 C 18.398438 17.324219 18.328125 17.417969 18.261719 17.503906 C 18.09375 17.441406 17.851562 17.347656 17.554688 17.246094 C 17.554688 17.246094 17.554688 17.246094 17.554688 17.242188 C 17.328125 17.164062 17.074219 17.082031 16.796875 17.003906 C 16.71875 16.980469 16.640625 16.957031 16.558594 16.933594 C 16.234375 16.847656 15.894531 16.769531 15.566406 16.722656 C 15.289062 16.679688 15.019531 16.652344 14.765625 16.652344 L 14.558594 16.589844 L 14.550781 16.589844 L 13.441406 16.269531 L 12.761719 16.074219 L 12 15.855469 L 11.996094 15.855469 L 11.746094 15.785156 L 8.753906 14.921875 L 7.890625 14.675781 L 7.25 14.523438 L 6.207031 14.277344 L 6.078125 14.246094 C 6.078125 14.246094 6.078125 14.246094 6.074219 14.246094 L 5.023438 14.003906 C 5.023438 13.996094 5.023438 13.996094 5.023438 13.996094 L 4.835938 13.957031 L 4.738281 13.933594 L 3.972656 13.753906 L 3.886719 13.730469 L 3.234375 13.195312 L 2.75 12.789062 L 2.75 10.917969 C 2.917969 10.753906 3.09375 10.597656 3.277344 10.445312 C 3.332031 10.394531 3.390625 10.347656 3.453125 10.304688 C 3.507812 10.257812 3.566406 10.210938 3.625 10.164062 C 4.042969 9.847656 4.484375 9.566406 4.949219 9.324219 C 5.546875 9 6.179688 8.746094 6.84375 8.5625 C 6.972656 8.519531 7.097656 8.484375 7.234375 8.457031 C 7.984375 8.269531 8.773438 8.171875 9.589844 8.171875 C 11.636719 8.171875 13.542969 8.789062 15.121094 9.847656 C 15.902344 10.375 16.609375 11.007812 17.207031 11.730469 C 17.507812 12.089844 17.785156 12.472656 18.027344 12.875 C 18.050781 12.90625 18.066406 12.933594 18.085938 12.964844 C 18.234375 13.210938 18.371094 13.460938 18.492188 13.71875 C 18.609375 13.945312 18.710938 14.175781 18.800781 14.414062 C 18.949219 14.78125 19.066406 15.15625 19.167969 15.542969 Z M 19.167969 15.542969 "/>
<path style=" stroke:none;fill-rule:nonzero;fill:rgb(100%,9.019608%,26.666667%);fill-opacity:1;" d="M 18.460938 17.230469 C 18.398438 17.324219 18.328125 17.417969 18.261719 17.503906 C 18.058594 17.753906 17.839844 17.984375 17.589844 18.1875 C 17.375 18.367188 17.144531 18.527344 16.902344 18.664062 C 16.8125 18.640625 16.71875 18.613281 16.625 18.578125 C 16.320312 18.472656 16.003906 18.296875 15.710938 18.113281 C 15.273438 17.832031 14.890625 17.53125 14.722656 17.394531 C 14.65625 17.339844 14.625 17.3125 14.625 17.3125 L 13.847656 17.242188 L 13.75 17.234375 L 12.742188 17.144531 L 11.695312 17.054688 L 10.152344 16.917969 L 7.703125 16.703125 L 7.695312 16.695312 L 6.832031 16.28125 L 5.964844 15.859375 L 5.261719 15.519531 L 5.109375 15.445312 L 4.921875 15.355469 L 4.273438 15.039062 L 3.40625 14.621094 L 3.136719 14.488281 L 2.75 14.367188 L 2.75 12.320312 C 2.964844 12.0625 3.195312 11.820312 3.4375 11.585938 C 3.59375 11.441406 3.757812 11.292969 3.929688 11.15625 C 3.957031 11.132812 3.984375 11.109375 4.011719 11.089844 C 4.027344 11.070312 4.050781 11.054688 4.070312 11.046875 C 4.339844 10.824219 4.625 10.628906 4.917969 10.449219 C 5.257812 10.234375 5.613281 10.042969 5.984375 9.882812 C 6.382812 9.703125 6.800781 9.550781 7.234375 9.4375 C 7.980469 9.226562 8.773438 9.117188 9.589844 9.117188 C 11.457031 9.117188 13.1875 9.683594 14.613281 10.660156 C 15.523438 11.285156 16.3125 12.074219 16.933594 12.984375 C 17.140625 13.277344 17.324219 13.589844 17.496094 13.910156 C 17.554688 14.03125 17.613281 14.148438 17.664062 14.269531 C 17.71875 14.382812 17.769531 14.496094 17.820312 14.613281 C 17.917969 14.851562 18.003906 15.089844 18.082031 15.335938 C 18.226562 15.792969 18.339844 16.261719 18.40625 16.746094 C 18.429688 16.90625 18.449219 17.066406 18.460938 17.230469 Z M 18.460938 17.230469 "/>
<path style=" stroke:none;fill-rule:nonzero;fill:rgb(100%,34.117647%,13.333333%);fill-opacity:1;" d="M 17.59375 18.066406 C 17.59375 18.105469 17.59375 18.144531 17.589844 18.1875 C 17.375 18.367188 17.144531 18.527344 16.902344 18.664062 C 16.800781 18.71875 16.703125 18.773438 16.597656 18.820312 C 16.492188 18.871094 16.386719 18.914062 16.277344 18.957031 C 16.121094 18.875 15.910156 18.773438 15.683594 18.675781 C 15.367188 18.535156 15.023438 18.40625 14.757812 18.367188 C 14.695312 18.351562 14.632812 18.347656 14.578125 18.347656 L 13.828125 18.25 L 13.820312 18.25 L 12.882812 18.128906 L 11.941406 18.003906 L 11.5 17.949219 L 8.035156 17.5 C 7.808594 17.5 7.570312 17.484375 7.324219 17.453125 C 7.023438 17.425781 6.707031 17.378906 6.390625 17.316406 C 6.078125 17.261719 5.761719 17.1875 5.457031 17.109375 C 5.140625 17.035156 4.832031 16.949219 4.542969 16.867188 C 4.207031 16.765625 3.894531 16.667969 3.632812 16.582031 C 3.417969 16.515625 3.234375 16.449219 3.09375 16.398438 C 3.011719 16.203125 2.941406 15.996094 2.890625 15.785156 C 2.796875 15.425781 2.75 15.050781 2.75 14.667969 L 2.75 13.902344 C 2.898438 13.660156 3.058594 13.421875 3.234375 13.195312 C 3.5625 12.765625 3.933594 12.371094 4.335938 12.023438 C 4.347656 12.003906 4.367188 11.988281 4.382812 11.980469 L 4.386719 11.976562 C 4.527344 11.847656 4.675781 11.734375 4.832031 11.625 C 4.847656 11.605469 4.867188 11.589844 4.886719 11.578125 C 4.960938 11.523438 5.035156 11.46875 5.121094 11.417969 C 5.773438 10.972656 6.5 10.625 7.273438 10.390625 C 8.007812 10.171875 8.78125 10.054688 9.589844 10.054688 C 11.1875 10.054688 12.683594 10.527344 13.929688 11.335938 C 14.851562 11.925781 15.644531 12.703125 16.246094 13.617188 C 16.320312 13.722656 16.390625 13.828125 16.457031 13.9375 C 16.773438 14.472656 17.035156 15.050781 17.230469 15.65625 C 17.25 15.726562 17.269531 15.792969 17.289062 15.867188 C 17.324219 15.992188 17.355469 16.121094 17.382812 16.246094 C 17.394531 16.28125 17.402344 16.3125 17.410156 16.347656 C 17.476562 16.636719 17.523438 16.941406 17.554688 17.242188 C 17.554688 17.246094 17.554688 17.246094 17.554688 17.246094 C 17.582031 17.515625 17.59375 17.792969 17.59375 18.066406 Z M 17.59375 18.066406 "/>
<path style=" stroke:none;fill-rule:nonzero;fill:rgb(100%,43.529412%,0%);fill-opacity:1;" d="M 16.652344 18.066406 C 16.652344 18.226562 16.640625 18.402344 16.625 18.578125 C 16.613281 18.660156 16.605469 18.742188 16.597656 18.820312 C 16.492188 18.871094 16.386719 18.914062 16.277344 18.957031 C 16.070312 19.035156 15.859375 19.097656 15.644531 19.144531 C 15.496094 19.175781 15.34375 19.203125 15.195312 19.21875 L 15.1875 19.21875 C 15.046875 19.128906 14.882812 19.027344 14.710938 18.90625 C 14.40625 18.691406 14.085938 18.449219 13.828125 18.25 C 13.824219 18.246094 13.824219 18.246094 13.820312 18.242188 C 13.546875 18.035156 13.355469 17.878906 13.355469 17.878906 L 12.871094 17.898438 L 11.933594 17.929688 L 11.5 17.949219 L 9.75 18.011719 L 8.269531 18.066406 C 8.171875 18.070312 8.058594 18.070312 7.914062 18.066406 L 7.910156 18.066406 C 7.71875 18.0625 7.488281 18.050781 7.238281 18.027344 C 6.945312 18.003906 6.621094 17.976562 6.296875 17.945312 C 5.980469 17.90625 5.660156 17.871094 5.351562 17.832031 C 5.015625 17.796875 4.691406 17.753906 4.417969 17.71875 C 4.203125 17.691406 4.015625 17.667969 3.863281 17.652344 C 3.734375 17.503906 3.621094 17.351562 3.511719 17.1875 C 3.347656 16.941406 3.203125 16.679688 3.09375 16.398438 C 3.011719 16.203125 2.941406 15.996094 2.890625 15.785156 C 3.023438 15.378906 3.199219 14.992188 3.40625 14.621094 C 3.570312 14.316406 3.761719 14.03125 3.972656 13.753906 C 4.179688 13.484375 4.40625 13.230469 4.648438 13.003906 L 4.648438 13 C 4.714844 12.929688 4.785156 12.867188 4.855469 12.804688 C 4.980469 12.6875 5.113281 12.578125 5.253906 12.472656 L 5.257812 12.472656 C 5.261719 12.460938 5.265625 12.460938 5.269531 12.457031 C 5.378906 12.371094 5.496094 12.292969 5.609375 12.214844 C 6.289062 11.75 7.054688 11.40625 7.878906 11.207031 C 8.425781 11.074219 8.996094 11 9.589844 11 C 10.753906 11 11.851562 11.28125 12.820312 11.785156 L 12.824219 11.785156 C 13.652344 12.210938 14.386719 12.796875 14.976562 13.503906 C 15.304688 13.878906 15.582031 14.289062 15.8125 14.726562 C 15.972656 15.019531 16.109375 15.328125 16.226562 15.636719 C 16.234375 15.664062 16.242188 15.6875 16.253906 15.710938 C 16.332031 15.941406 16.398438 16.179688 16.457031 16.417969 C 16.5 16.585938 16.53125 16.761719 16.558594 16.933594 C 16.570312 16.992188 16.578125 17.039062 16.582031 17.097656 C 16.628906 17.410156 16.652344 17.738281 16.652344 18.066406 Z M 16.652344 18.066406 "/>
<path style=" stroke:none;fill-rule:nonzero;fill:rgb(100%,59.607843%,0%);fill-opacity:1;" d="M 15.710938 18.066406 L 15.710938 18.113281 C 15.710938 18.269531 15.699219 18.464844 15.683594 18.675781 C 15.671875 18.832031 15.65625 18.992188 15.644531 19.144531 C 15.496094 19.175781 15.34375 19.203125 15.195312 19.21875 L 15.1875 19.21875 C 15.015625 19.242188 14.84375 19.25 14.667969 19.25 L 13.863281 19.25 L 13.691406 19.199219 L 12.789062 18.925781 L 11.871094 18.648438 L 9.75 18.011719 L 8.832031 17.738281 C 8.832031 17.738281 8.453125 17.890625 7.914062 18.066406 L 7.910156 18.066406 C 7.703125 18.136719 7.480469 18.210938 7.242188 18.28125 C 6.945312 18.371094 6.628906 18.457031 6.316406 18.527344 C 5.996094 18.597656 5.679688 18.652344 5.394531 18.675781 C 5.308594 18.6875 5.21875 18.691406 5.140625 18.691406 C 4.886719 18.546875 4.636719 18.378906 4.414062 18.191406 C 4.214844 18.027344 4.035156 17.847656 3.863281 17.652344 C 3.734375 17.503906 3.621094 17.351562 3.511719 17.1875 C 3.542969 16.980469 3.578125 16.78125 3.632812 16.582031 C 3.773438 16.035156 3.988281 15.515625 4.273438 15.039062 C 4.425781 14.765625 4.601562 14.507812 4.804688 14.261719 C 4.808594 14.25 4.820312 14.234375 4.835938 14.226562 C 4.832031 14.222656 4.835938 14.222656 4.835938 14.222656 C 4.894531 14.144531 4.960938 14.070312 5.023438 14.003906 C 5.023438 13.996094 5.023438 13.996094 5.023438 13.996094 C 5.210938 13.796875 5.402344 13.601562 5.613281 13.425781 C 5.6875 13.363281 5.757812 13.304688 5.835938 13.246094 C 5.847656 13.230469 5.863281 13.222656 5.878906 13.210938 C 6.910156 12.421875 8.199219 11.945312 9.589844 11.945312 C 11.164062 11.945312 12.597656 12.535156 13.6875 13.507812 C 14.207031 13.980469 14.652344 14.542969 14.988281 15.171875 C 15.015625 15.214844 15.042969 15.265625 15.066406 15.316406 C 15.105469 15.398438 15.148438 15.488281 15.183594 15.578125 C 15.335938 15.910156 15.453125 16.257812 15.539062 16.613281 C 15.546875 16.652344 15.554688 16.6875 15.566406 16.722656 C 15.601562 16.894531 15.632812 17.066406 15.65625 17.242188 C 15.691406 17.511719 15.710938 17.789062 15.710938 18.066406 Z M 15.710938 18.066406 "/>
<path style=" stroke:none;fill-rule:nonzero;fill:rgb(100%,75.686275%,2.745098%);fill-opacity:1;" d="M 14.765625 18.066406 C 14.765625 18.160156 14.761719 18.261719 14.757812 18.367188 C 14.75 18.535156 14.734375 18.71875 14.710938 18.90625 C 14.703125 19.019531 14.683594 19.136719 14.667969 19.25 L 12.15625 19.25 L 11.667969 19.171875 L 9.773438 18.871094 L 9.5 18.828125 L 8.882812 18.726562 C 8.613281 18.726562 8.027344 18.847656 7.40625 18.960938 C 7.082031 19.019531 6.75 19.085938 6.453125 19.125 C 6.417969 19.128906 6.378906 19.136719 6.347656 19.140625 L 6.34375 19.140625 C 6.023438 19.070312 5.710938 18.964844 5.417969 18.828125 C 5.324219 18.785156 5.234375 18.742188 5.140625 18.691406 C 4.886719 18.546875 4.636719 18.378906 4.414062 18.191406 C 4.410156 18.136719 4.40625 18.089844 4.40625 18.066406 C 4.40625 17.949219 4.410156 17.832031 4.417969 17.71875 C 4.4375 17.425781 4.476562 17.140625 4.542969 16.867188 C 4.644531 16.449219 4.789062 16.046875 4.988281 15.675781 C 5.023438 15.597656 5.066406 15.519531 5.109375 15.445312 C 5.128906 15.410156 5.152344 15.378906 5.171875 15.339844 C 5.253906 15.207031 5.34375 15.078125 5.4375 14.949219 C 5.628906 14.699219 5.84375 14.460938 6.074219 14.246094 C 6.078125 14.246094 6.078125 14.246094 6.078125 14.246094 C 6.097656 14.226562 6.113281 14.207031 6.132812 14.195312 C 6.15625 14.175781 6.171875 14.152344 6.195312 14.140625 C 6.289062 14.058594 6.378906 13.984375 6.476562 13.914062 C 6.476562 13.910156 6.480469 13.910156 6.480469 13.910156 C 7.347656 13.265625 8.417969 12.882812 9.589844 12.882812 C 10.496094 12.882812 11.339844 13.113281 12.078125 13.515625 L 12.082031 13.515625 C 12.714844 13.863281 13.265625 14.335938 13.699219 14.90625 C 13.871094 15.125 14.019531 15.359375 14.148438 15.605469 L 14.152344 15.605469 C 14.175781 15.652344 14.199219 15.699219 14.222656 15.742188 C 14.359375 16.015625 14.46875 16.296875 14.550781 16.589844 L 14.558594 16.589844 C 14.5625 16.613281 14.570312 16.636719 14.574219 16.660156 C 14.628906 16.859375 14.675781 17.058594 14.707031 17.265625 C 14.710938 17.308594 14.71875 17.351562 14.722656 17.394531 C 14.753906 17.613281 14.765625 17.839844 14.765625 18.066406 Z M 14.765625 18.066406 "/>
<path style=" stroke:none;fill-rule:nonzero;fill:rgb(100%,83.529412%,30.980392%);fill-opacity:1;" d="M 13.828125 18.015625 C 13.828125 18.089844 13.828125 18.167969 13.820312 18.242188 L 13.820312 18.246094 C 13.820312 18.25 13.820312 18.25 13.820312 18.25 C 13.808594 18.582031 13.765625 18.90625 13.691406 19.199219 C 13.691406 19.21875 13.6875 19.230469 13.675781 19.25 L 11.535156 19.25 L 9.773438 18.871094 L 9.539062 18.820312 L 9.5 18.828125 L 7.542969 19.230469 L 7.457031 19.25 L 7.332031 19.25 C 7.039062 19.25 6.75 19.222656 6.472656 19.167969 C 6.429688 19.160156 6.390625 19.148438 6.347656 19.140625 L 6.34375 19.140625 C 6.023438 19.070312 5.710938 18.964844 5.417969 18.828125 C 5.410156 18.777344 5.398438 18.726562 5.394531 18.675781 C 5.363281 18.480469 5.347656 18.273438 5.347656 18.066406 C 5.347656 17.988281 5.347656 17.910156 5.351562 17.832031 C 5.367188 17.585938 5.402344 17.34375 5.457031 17.109375 C 5.496094 16.933594 5.546875 16.765625 5.605469 16.605469 C 5.65625 16.464844 5.714844 16.324219 5.78125 16.191406 C 5.835938 16.078125 5.898438 15.96875 5.964844 15.859375 C 6.027344 15.753906 6.097656 15.652344 6.167969 15.550781 C 6.351562 15.300781 6.566406 15.066406 6.804688 14.859375 C 6.945312 14.738281 7.09375 14.625 7.25 14.523438 C 7.921875 14.085938 8.722656 13.828125 9.589844 13.828125 C 9.757812 13.828125 9.921875 13.835938 10.082031 13.859375 L 10.09375 13.859375 C 10.582031 13.914062 11.042969 14.050781 11.464844 14.257812 C 11.46875 14.257812 11.46875 14.257812 11.46875 14.257812 C 12.132812 14.585938 12.695312 15.074219 13.109375 15.679688 C 13.175781 15.78125 13.246094 15.890625 13.304688 16 C 13.355469 16.085938 13.402344 16.179688 13.441406 16.269531 C 13.507812 16.414062 13.566406 16.5625 13.617188 16.714844 L 13.621094 16.714844 C 13.671875 16.886719 13.71875 17.054688 13.75 17.234375 L 13.75 17.238281 C 13.800781 17.488281 13.828125 17.75 13.828125 18.015625 Z M 13.828125 18.015625 "/>
<path style=" stroke:none;fill-rule:nonzero;fill:rgb(100%,87.843137%,50.980392%);fill-opacity:1;" d="M 12.882812 18.113281 L 12.882812 18.128906 C 12.882812 18.398438 12.851562 18.664062 12.789062 18.925781 C 12.765625 19.035156 12.734375 19.144531 12.691406 19.25 L 10.636719 19.25 L 9.589844 18.960938 L 8.539062 19.25 L 7.332031 19.25 C 7.039062 19.25 6.75 19.222656 6.472656 19.167969 C 6.460938 19.152344 6.457031 19.140625 6.453125 19.125 C 6.390625 18.929688 6.339844 18.730469 6.316406 18.527344 C 6.296875 18.394531 6.289062 18.253906 6.289062 18.113281 C 6.289062 18.058594 6.289062 18 6.296875 17.945312 C 6.300781 17.726562 6.335938 17.515625 6.390625 17.316406 C 6.417969 17.179688 6.457031 17.046875 6.511719 16.917969 C 6.53125 16.851562 6.558594 16.792969 6.589844 16.734375 C 6.660156 16.578125 6.742188 16.425781 6.832031 16.28125 C 6.933594 16.132812 7.042969 15.996094 7.167969 15.867188 C 7.316406 15.703125 7.480469 15.550781 7.667969 15.425781 C 7.988281 15.195312 8.355469 15.019531 8.753906 14.921875 C 9.019531 14.851562 9.300781 14.8125 9.589844 14.8125 C 10.503906 14.8125 11.324219 15.179688 11.921875 15.769531 C 11.945312 15.792969 11.972656 15.820312 11.996094 15.855469 L 12 15.855469 C 12.0625 15.921875 12.121094 15.992188 12.183594 16.070312 C 12.351562 16.285156 12.496094 16.519531 12.605469 16.773438 C 12.660156 16.894531 12.703125 17.019531 12.742188 17.144531 C 12.746094 17.164062 12.75 17.179688 12.753906 17.195312 C 12.820312 17.421875 12.859375 17.65625 12.871094 17.898438 C 12.878906 17.964844 12.882812 18.039062 12.882812 18.113281 Z M 12.882812 18.113281 "/>
<path style=" stroke:none;fill-rule:nonzero;fill:rgb(100%,92.54902%,70.196078%);fill-opacity:1;" d="M 11.945312 18.113281 C 11.945312 18.300781 11.921875 18.480469 11.871094 18.648438 C 11.824219 18.832031 11.757812 19.007812 11.667969 19.171875 C 11.65625 19.199219 11.625 19.25 11.625 19.25 L 7.554688 19.25 C 7.546875 19.246094 7.542969 19.234375 7.542969 19.230469 C 7.488281 19.144531 7.441406 19.058594 7.40625 18.960938 C 7.316406 18.75 7.261719 18.519531 7.242188 18.28125 C 7.234375 18.226562 7.234375 18.167969 7.234375 18.113281 C 7.234375 18.085938 7.234375 18.054688 7.238281 18.027344 C 7.242188 17.824219 7.269531 17.632812 7.324219 17.453125 C 7.371094 17.289062 7.429688 17.136719 7.507812 16.992188 C 7.507812 16.992188 7.511719 16.984375 7.511719 16.980469 C 7.566406 16.886719 7.625 16.789062 7.695312 16.695312 C 7.921875 16.394531 8.21875 16.148438 8.5625 15.988281 C 8.566406 15.988281 8.566406 15.988281 8.566406 15.988281 C 8.675781 15.933594 8.789062 15.886719 8.910156 15.855469 C 8.910156 15.855469 8.910156 15.855469 8.914062 15.855469 C 9.125 15.789062 9.355469 15.757812 9.589844 15.757812 C 9.859375 15.757812 10.121094 15.796875 10.359375 15.886719 C 10.445312 15.910156 10.527344 15.945312 10.609375 15.988281 C 10.609375 15.988281 10.609375 15.988281 10.613281 15.988281 C 11.007812 16.175781 11.34375 16.46875 11.574219 16.835938 C 11.617188 16.902344 11.660156 16.976562 11.695312 17.054688 C 11.714844 17.085938 11.734375 17.125 11.746094 17.15625 C 11.851562 17.394531 11.917969 17.65625 11.933594 17.929688 C 11.941406 17.953125 11.941406 17.976562 11.941406 18.003906 C 11.945312 18.039062 11.945312 18.078125 11.945312 18.113281 Z M 11.945312 18.113281 "/>
<path style="fill:none;stroke-width:2;stroke-linecap:round;stroke-linejoin:round;stroke:rgb(100%,100%,100%);stroke-opacity:1;stroke-miterlimit:10;" d="M 30 11.002841 L 18 11.002841 C 14.096591 11.002841 11.002841 14.096591 11.002841 18 L 11.002841 30 C 11.002841 33.903409 14.096591 36.997159 18 36.997159 L 30 36.997159 C 33.903409 36.997159 36.997159 33.903409 36.997159 30 L 36.997159 18 C 36.997159 14.096591 33.903409 11.002841 30 11.002841 Z M 30 11.002841 " transform="matrix(0.458333,0,0,0.458333,0,0)"/>
<path style=" stroke:none;fill-rule:nonzero;fill:rgb(100%,100%,100%);fill-opacity:1;" d="M 14.667969 7.332031 C 14.667969 7.585938 14.460938 7.792969 14.207031 7.792969 C 13.957031 7.792969 13.75 7.585938 13.75 7.332031 C 13.75 7.082031 13.957031 6.875 14.207031 6.875 C 14.460938 6.875 14.667969 7.082031 14.667969 7.332031 Z M 14.667969 7.332031 "/>
<path style="fill:none;stroke-width:2;stroke-linecap:round;stroke-linejoin:round;stroke:rgb(100%,100%,100%);stroke-opacity:1;stroke-miterlimit:10;" d="M 30 24 C 30 27.315341 27.315341 30 24 30 C 20.684659 30 18 27.315341 18 24 C 18 20.684659 20.684659 18 24 18 C 27.315341 18 30 20.684659 30 24 Z M 30 24 " transform="matrix(0.458333,0,0,0.458333,0,0)"/>
</g>
</svg>
