<?xml version="1.0" encoding="UTF-8"?>
<svg xmlns="http://www.w3.org/2000/svg" xmlns:xlink="http://www.w3.org/1999/xlink" width="20px" height="20px" viewBox="0 0 20 20" version="1.1">
<g id="surface1">
<path style="fill:none;stroke-width:1.5;stroke-linecap:round;stroke-linejoin:round;stroke:rgb(100%,100%,100%);stroke-opacity:1;stroke-miterlimit:4;" d="M 6.72168 5.478516 C 6.80957 4.604492 7.117188 3.764648 7.615234 3.037109 C 8.113281 2.30957 8.782227 1.71875 9.568359 1.318359 C 10.354492 0.922852 11.228516 0.727539 12.107422 0.751953 C 12.986328 0.78125 13.845703 1.025391 14.607422 1.474609 C 15.364258 1.918945 16.003906 2.548828 16.453125 3.305664 C 16.907227 4.0625 17.161133 4.916992 17.195312 5.800781 C 17.229492 6.679688 17.039062 7.553711 16.648438 8.339844 C 16.262695 9.116211 15.691406 9.780273 14.988281 10.283203 " transform="matrix(0.8,0,0,0.8,0.4,0)"/>
<path style="fill:none;stroke-width:1.5;stroke-linecap:round;stroke-linejoin:round;stroke:rgb(100%,100%,100%);stroke-opacity:1;stroke-miterlimit:4;" d="M 7.439453 3.354492 C 8.25 4.189453 9.226562 4.858398 10.300781 5.3125 C 11.375 5.766602 12.532227 6.000977 13.699219 6.000977 C 14.851562 6.005859 15.984375 5.776367 17.048828 5.336914 " transform="matrix(0.8,0,0,0.8,0.4,0)"/>
<path style="fill:none;stroke-width:1.5;stroke-linecap:round;stroke-linejoin:round;stroke:rgb(100%,100%,100%);stroke-opacity:1;stroke-miterlimit:4;" d="M 10.823242 9.750977 C 10.525391 9.750977 10.237305 9.838867 9.988281 10.004883 C 9.744141 10.170898 9.548828 10.405273 9.436523 10.678711 C 9.324219 10.952148 9.294922 11.254883 9.353516 11.542969 C 9.412109 11.835938 9.553711 12.104492 9.763672 12.314453 C 9.973633 12.524414 10.237305 12.666016 10.530273 12.724609 C 10.823242 12.783203 11.121094 12.753906 11.399414 12.636719 C 11.672852 12.524414 11.907227 12.333984 12.068359 12.084961 C 12.234375 11.84082 12.322266 11.547852 12.322266 11.254883 C 12.322266 10.854492 12.166016 10.473633 11.882812 10.19043 C 11.604492 9.912109 11.21875 9.750977 10.823242 9.750977 Z M 10.823242 9.750977 " transform="matrix(0.8,0,0,0.8,0.4,0)"/>
<path style="fill:none;stroke-width:1.5;stroke-linecap:round;stroke-linejoin:round;stroke:rgb(100%,100%,100%);stroke-opacity:1;stroke-miterlimit:4;" d="M 4.822266 7.172852 L 4.822266 8.251953 C 4.822266 9.047852 5.139648 9.80957 5.701172 10.375977 C 6.262695 10.9375 7.029297 11.254883 7.825195 11.254883 L 9.246094 11.254883 " transform="matrix(0.8,0,0,0.8,0.4,0)"/>
<path style="fill:none;stroke-width:1.5;stroke-linecap:round;stroke-linejoin:round;stroke:rgb(100%,100%,100%);stroke-opacity:1;stroke-miterlimit:4;" d="M 21.702148 23.251953 C 21.702148 21.469727 21.208984 19.72168 20.286133 18.198242 C 19.363281 16.679688 18.044922 15.439453 16.467773 14.619141 " transform="matrix(0.8,0,0,0.8,0.4,0)"/>
<path style="fill:none;stroke-width:1.5;stroke-linecap:round;stroke-linejoin:round;stroke:rgb(100%,100%,100%);stroke-opacity:1;stroke-miterlimit:4;" d="M 2.200195 23.251953 C 2.200195 21.469727 2.688477 19.72168 3.616211 18.198242 C 4.53418 16.679688 5.852539 15.444336 7.424805 14.619141 " transform="matrix(0.8,0,0,0.8,0.4,0)"/>
</g>
</svg>
