<?xml version="1.0" encoding="UTF-8"?>
<svg xmlns="http://www.w3.org/2000/svg" xmlns:xlink="http://www.w3.org/1999/xlink" width="22px" height="22px" viewBox="0 0 22 22" version="1.1">
<g id="surface1">
<path style=" stroke:none;fill-rule:nonzero;fill:rgb(16.078431%,71.372549%,96.470588%);fill-opacity:1;" d="M 11 1.832031 C 5.9375 1.832031 1.832031 5.9375 1.832031 11 C 1.832031 16.0625 5.9375 20.167969 11 20.167969 C 16.0625 20.167969 20.167969 16.0625 20.167969 11 C 20.167969 5.9375 16.0625 1.832031 11 1.832031 Z M 11 1.832031 "/>
<path style=" stroke:none;fill-rule:nonzero;fill:rgb(100%,100%,100%);fill-opacity:1;" d="M 15.558594 6.875 L 13.84375 15.640625 C 13.84375 15.640625 13.769531 16.042969 13.273438 16.042969 C 13.007812 16.042969 12.871094 15.917969 12.871094 15.917969 L 9.152344 12.832031 L 7.335938 11.914062 L 5 11.292969 C 5 11.292969 4.582031 11.171875 4.582031 10.828125 C 4.582031 10.542969 5.011719 10.40625 5.011719 10.40625 L 14.78125 6.523438 C 14.78125 6.523438 15.078125 6.417969 15.296875 6.417969 C 15.429688 6.417969 15.582031 6.472656 15.582031 6.644531 C 15.582031 6.761719 15.558594 6.875 15.558594 6.875 Z M 15.558594 6.875 "/>
<path style=" stroke:none;fill-rule:nonzero;fill:rgb(69.019608%,74.509804%,77.254902%);fill-opacity:1;" d="M 10.542969 13.980469 L 8.972656 15.527344 C 8.972656 15.527344 8.902344 15.582031 8.8125 15.582031 C 8.78125 15.582031 8.746094 15.578125 8.710938 15.5625 L 9.152344 12.828125 Z M 10.542969 13.980469 "/>
<path style=" stroke:none;fill-rule:nonzero;fill:rgb(81.176471%,84.705882%,86.27451%);fill-opacity:1;" d="M 13.703125 8.339844 C 13.625 8.238281 13.480469 8.21875 13.382812 8.296875 L 7.332031 11.917969 C 7.332031 11.917969 8.296875 14.617188 8.445312 15.085938 C 8.59375 15.550781 8.710938 15.5625 8.710938 15.5625 L 9.152344 12.828125 L 13.660156 8.660156 C 13.761719 8.585938 13.78125 8.441406 13.703125 8.339844 Z M 13.703125 8.339844 "/>
</g>
</svg>
