<?xml version="1.0" encoding="UTF-8"?>
<svg xmlns="http://www.w3.org/2000/svg" xmlns:xlink="http://www.w3.org/1999/xlink" width="22px" height="22px" viewBox="0 0 22 22" version="1.1">
<g id="surface1">
<path style=" stroke:none;fill-rule:nonzero;fill:rgb(9.803922%,46.27451%,82.352941%);fill-opacity:1;" d="M 11 1.832031 C 5.9375 1.832031 1.832031 5.9375 1.832031 11 C 1.832031 16.0625 5.9375 20.167969 11 20.167969 C 16.0625 20.167969 20.167969 16.0625 20.167969 11 C 20.167969 5.9375 16.0625 1.832031 11 1.832031 Z M 11 1.832031 "/>
<path style=" stroke:none;fill-rule:nonzero;fill:rgb(100%,100%,100%);fill-opacity:1;" d="M 16.472656 8.269531 C 16.492188 8.199219 16.503906 8.136719 16.5 8.078125 C 16.492188 7.914062 16.378906 7.792969 16.109375 7.792969 L 14.910156 7.792969 C 14.605469 7.792969 14.46875 7.976562 14.386719 8.160156 C 14.386719 8.160156 13.636719 9.699219 12.777344 10.714844 C 12.496094 11.007812 12.355469 11 12.203125 11 C 12.121094 11 11.917969 10.902344 11.917969 10.632812 L 11.917969 8.257812 C 11.917969 7.9375 11.835938 7.792969 11.582031 7.792969 L 9.449219 7.792969 C 9.265625 7.792969 9.167969 7.9375 9.167969 8.085938 C 9.167969 8.390625 9.578125 8.464844 9.625 9.320312 L 9.625 10.980469 C 9.625 11.386719 9.554688 11.457031 9.402344 11.457031 C 8.996094 11.457031 8.191406 10.082031 7.65625 8.28125 C 7.539062 7.925781 7.421875 7.792969 7.121094 7.792969 L 5.90625 7.792969 C 5.558594 7.792969 5.5 7.964844 5.5 8.144531 C 5.5 8.476562 5.773438 10.261719 7.277344 12.316406 C 8.363281 13.808594 9.796875 14.667969 11.066406 14.667969 C 11.835938 14.667969 11.917969 14.472656 11.917969 14.164062 L 11.917969 12.804688 C 11.917969 12.4375 12 12.375 12.246094 12.375 C 12.417969 12.375 12.777344 12.488281 13.464844 13.292969 C 14.257812 14.214844 14.398438 14.667969 14.855469 14.667969 L 16.054688 14.667969 C 16.332031 14.667969 16.492188 14.550781 16.5 14.324219 C 16.5 14.265625 16.492188 14.199219 16.472656 14.128906 C 16.386719 13.863281 15.976562 13.21875 15.46875 12.605469 C 15.1875 12.261719 14.910156 11.925781 14.78125 11.742188 C 14.695312 11.625 14.664062 11.539062 14.667969 11.457031 C 14.671875 11.375 14.714844 11.292969 14.78125 11.179688 C 14.769531 11.179688 16.320312 9.003906 16.472656 8.269531 Z M 16.472656 8.269531 "/>
</g>
</svg>
