<?xml version="1.0" encoding="UTF-8"?>
<svg xmlns="http://www.w3.org/2000/svg" xmlns:xlink="http://www.w3.org/1999/xlink" width="22px" height="22px" viewBox="0 0 22 22" version="1.1">
<g id="surface1">
<path style=" stroke:none;fill-rule:nonzero;fill:rgb(100%,23.921569%,0%);fill-opacity:1;" d="M 19.800781 15.539062 C 19.617188 16.5 18.835938 17.234375 17.875 17.371094 C 16.363281 17.601562 13.839844 17.875 11 17.875 C 8.203125 17.875 5.683594 17.601562 4.125 17.371094 C 3.164062 17.234375 2.382812 16.5 2.199219 15.539062 C 2.015625 14.484375 1.832031 12.925781 1.832031 11 C 1.832031 9.074219 2.015625 7.515625 2.199219 6.460938 C 2.382812 5.5 3.164062 4.765625 4.125 4.628906 C 5.636719 4.398438 8.160156 4.125 11 4.125 C 13.839844 4.125 16.316406 4.398438 17.875 4.628906 C 18.835938 4.765625 19.617188 5.5 19.800781 6.460938 C 19.984375 7.515625 20.210938 9.074219 20.210938 11 C 20.167969 12.925781 19.984375 14.484375 19.800781 15.539062 Z M 19.800781 15.539062 "/>
<path style=" stroke:none;fill-rule:nonzero;fill:rgb(100%,100%,100%);fill-opacity:1;" d="M 9.167969 14.207031 L 9.167969 7.792969 L 14.667969 11 Z M 9.167969 14.207031 "/>
</g>
</svg>
